<?xml version="1.0" standalone="no"?>
<!DOCTYPE svg PUBLIC "-//W3C//DTD SVG 20010904//EN"
 "http://www.w3.org/TR/2001/REC-SVG-20010904/DTD/svg10.dtd">
<svg version="1.0" xmlns="http://www.w3.org/2000/svg"
 width="819.000000pt" height="959.000000pt" viewBox="0 0 819.000000 959.000000"
 preserveAspectRatio="xMidYMid meet">

<g transform="translate(0.000000,959.000000) scale(0.100000,-0.100000)"
fill="#000000" stroke="none">
<path d="M4000 9110 c0 -49 1 -50 30 -50 l30 0 0 -75 0 -75 -70 0 -70 0 0 35
0 35 -50 0 -50 0 0 -130 0 -130 50 0 50 0 0 35 0 35 70 0 70 0 0 -70 0 -70
-30 0 c-30 0 -30 -1 -30 -55 l0 -55 125 0 125 0 0 55 c0 54 0 55 -30 55 l-30
0 0 70 0 70 70 0 70 0 0 -35 0 -35 50 0 50 0 0 130 0 130 -50 0 -50 0 0 -35 0
-35 -70 0 -70 0 0 75 0 75 30 0 c29 0 30 1 30 50 l0 50 -125 0 -125 0 0 -50z"/>
<path d="M3765 8314 c-519 -30 -777 -58 -1028 -111 -65 -13 -77 -19 -72 -33 3
-10 55 -139 115 -286 99 -245 111 -269 132 -268 13 0 97 10 188 22 238 31 367
40 716 53 523 18 1124 -12 1514 -77 l35 -5 110 277 c61 153 110 282 110 288 0
31 -345 89 -728 122 -170 14 -935 27 -1092 18z m1070 -123 c237 -21 598 -70
611 -84 2 -2 -31 -88 -74 -192 l-77 -190 -85 12 c-306 44 -801 68 -1250 59
-413 -7 -518 -14 -955 -63 l-50 -5 -76 190 c-73 182 -76 191 -55 196 98 24
564 76 816 90 141 7 1073 -3 1195 -13z"/>
<path d="M3542 8129 c-28 -8 -33 -14 -30 -37 2 -21 8 -26 26 -25 21 3 22 0 22
-92 l0 -95 30 0 30 0 0 130 c0 146 2 142 -78 119z"/>
<path d="M3855 8128 c-33 -18 -45 -40 -45 -83 0 -55 26 -79 84 -80 29 0 42 -4
39 -12 -7 -19 -30 -23 -62 -10 -27 10 -33 9 -46 -8 -21 -28 -14 -38 34 -54 36
-11 48 -11 79 1 53 19 74 65 69 147 -3 55 -7 67 -31 87 -30 26 -86 32 -121 12z
m85 -63 c15 -18 -2 -45 -30 -45 -10 0 -23 7 -30 15 -15 18 2 45 30 45 10 0 23
-7 30 -15z"/>
<path d="M4216 8119 c-27 -22 -36 -75 -16 -95 8 -8 6 -15 -5 -24 -24 -20 -19
-73 9 -99 19 -18 36 -23 77 -23 45 0 57 4 76 26 26 31 28 50 9 87 -8 16 -10
32 -5 40 16 25 9 60 -16 84 -31 32 -91 34 -129 4z m84 -59 c0 -21 -33 -29 -45
-10 -9 15 4 30 26 30 12 0 19 -7 19 -20z m5 -105 c0 -23 -30 -32 -51 -14 -11
9 -12 15 -2 26 17 20 53 12 53 -12z"/>
<path d="M4600 8133 c-23 -9 -50 -35 -50 -49 0 -25 37 -36 63 -19 26 16 57 11
57 -10 0 -14 -39 -55 -87 -92 -24 -18 -33 -33 -33 -54 l0 -29 90 0 90 0 0 30
c0 28 -2 30 -40 30 l-40 0 40 36 c35 32 40 42 40 79 0 35 -5 48 -26 64 -25 20
-71 26 -104 14z"/>
<path d="M3280 7990 c0 -27 3 -30 30 -30 27 0 30 3 30 30 0 27 -3 30 -30 30
-27 0 -30 -3 -30 -30z"/>
<path d="M4910 7990 c0 -28 3 -30 35 -30 32 0 35 2 35 30 0 28 -3 30 -35 30
-32 0 -35 -2 -35 -30z"/>
<path d="M1933 5498 c3 -1893 3 -1893 25 -2003 41 -210 84 -339 165 -498 159
-314 439 -573 822 -762 153 -76 357 -145 618 -209 419 -103 518 -156 548 -293
13 -57 22 -55 33 8 9 51 57 113 112 145 71 42 151 68 415 134 319 81 453 127
634 215 517 253 830 614 956 1102 66 256 62 148 66 2196 l4 1857 -2201 0
-2201 0 4 -1892z m4267 70 c0 -1040 -4 -1756 -10 -1838 -32 -424 -160 -733
-415 -998 -205 -214 -466 -377 -766 -481 -64 -21 -217 -65 -339 -96 -332 -84
-428 -117 -514 -178 -23 -16 -32 -18 -45 -9 -42 30 -156 83 -227 106 -43 14
-170 48 -282 76 -341 85 -530 154 -712 262 -502 296 -756 679 -820 1233 -6 58
-10 713 -10 1858 l0 1767 2070 0 2070 0 0 -1702z"/>
<path d="M2213 5363 l3 -1778 22 -99 c89 -404 278 -676 633 -906 204 -132 385
-203 766 -299 247 -63 381 -104 448 -138 l39 -20 63 28 c89 40 192 71 442 133
276 70 406 113 556 186 239 116 462 293 595 471 115 155 198 354 242 583 22
110 22 119 25 1864 l4 1752 -1921 0 -1920 0 3 -1777z m3757 30 c0 -1155 -3
-1706 -11 -1768 -15 -126 -60 -294 -106 -400 -145 -337 -482 -623 -903 -770
-58 -20 -224 -67 -370 -105 -146 -37 -309 -84 -362 -104 -90 -34 -100 -36
-125 -23 -53 27 -188 68 -425 128 -132 33 -292 78 -356 100 -241 83 -464 215
-631 374 -245 233 -367 503 -400 880 -7 77 -11 697 -11 1743 l0 1622 1850 0
1850 0 0 -1677z"/>
<path d="M4860 6722 c-33 -62 -146 -173 -259 -253 -50 -35 -202 -134 -339
-219 -438 -276 -606 -411 -750 -605 -67 -90 -92 -149 -92 -219 0 -58 1 -61 50
-107 33 -33 88 -68 172 -109 67 -33 130 -60 139 -60 10 0 47 36 84 80 125 149
295 283 618 485 339 211 396 263 413 377 10 64 7 612 -4 650 -7 28 -7 28 -32
-20z"/>
<path d="M3354 5246 c-3 -15 -4 -102 -1 -194 5 -179 22 -261 73 -348 79 -137
285 -242 683 -349 242 -65 375 -112 453 -161 22 -14 42 -23 45 -21 8 9 22 82
33 174 13 116 -1 238 -36 310 -49 101 -95 124 -484 243 -437 134 -624 221
-727 338 l-32 36 -7 -28z"/>
<path d="M3938 4234 c-102 -85 -281 -260 -339 -332 -68 -84 -120 -184 -144
-277 -29 -115 -40 -326 -26 -547 6 -112 16 -219 20 -238 l8 -35 22 50 c145
332 379 609 821 977 162 134 230 201 230 226 0 33 -128 101 -280 150 -83 26
-231 62 -259 62 -5 0 -29 -16 -53 -36z"/>
<path d="M1335 6418 c-79 -87 -145 -214 -176 -337 -18 -73 -21 -105 -16 -230
3 -109 10 -162 25 -208 11 -35 17 -63 13 -63 -20 0 -204 131 -262 187 l-67 65
-7 -67 c-4 -36 -4 -103 -1 -148 21 -241 103 -445 271 -673 70 -93 44 -82 -60
28 -80 83 -108 121 -160 211 l-27 49 -35 -53 c-65 -95 -78 -146 -78 -304 0
-120 3 -150 23 -209 58 -171 151 -306 332 -479 l120 -114 -82 24 c-106 31
-245 29 -320 -4 -179 -81 -265 -364 -161 -531 43 -69 93 -105 156 -110 42 -3
57 0 77 16 24 20 25 25 23 117 l-3 96 59 -31 c62 -33 153 -104 270 -212 l73
-66 -43 10 c-24 5 -91 8 -149 5 -114 -6 -178 -24 -283 -79 -73 -39 -197 -152
-182 -166 6 -5 64 -31 130 -57 160 -64 248 -109 380 -195 61 -39 147 -90 192
-112 l82 -41 -70 -24 c-39 -13 -98 -37 -132 -54 -64 -33 -221 -138 -214 -145
2 -2 41 -11 86 -19 54 -11 138 -40 235 -81 228 -99 271 -109 456 -109 135 0
165 3 233 24 42 13 77 28 77 33 0 30 -98 194 -146 243 -30 31 -54 59 -54 61 0
2 14 4 31 4 17 0 29 3 27 8 -2 4 -34 69 -71 145 -75 155 -137 256 -199 323
l-42 45 -1 157 c-2 165 -10 212 -61 338 l-25 62 22 104 c35 171 15 378 -51
533 -19 44 -19 51 -6 103 36 138 49 250 50 402 0 162 -11 227 -56 333 l-21 48
31 127 c63 263 53 392 -66 827 -22 83 -46 176 -52 208 -6 31 -15 57 -20 57 -5
0 -38 -33 -75 -72z m132 -483 c22 -90 27 -135 27 -250 1 -133 -16 -265 -34
-265 -10 0 -43 77 -73 171 -39 117 -59 232 -60 345 -1 57 -5 104 -9 104 -14 0
-20 -180 -9 -285 10 -98 37 -235 57 -290 12 -32 -28 21 -64 85 -56 102 -77
190 -76 330 0 166 29 273 106 390 l32 49 38 -137 c21 -75 51 -186 65 -247z
m-387 -398 c186 -116 218 -138 263 -183 58 -56 108 -139 138 -224 18 -51 23
-94 27 -202 2 -76 1 -155 -3 -175 -7 -37 -8 -36 -32 52 -32 120 -100 276 -159
365 -27 41 -88 116 -138 167 -96 101 -131 121 -46 26 63 -71 158 -211 193
-285 38 -81 75 -195 97 -304 11 -53 20 -101 20 -106 0 -15 -293 383 -349 474
-83 135 -138 287 -156 433 l-8 59 29 -19 c16 -10 72 -46 124 -78z m34 -743
c197 -176 259 -250 329 -389 42 -84 72 -180 81 -255 l6 -55 -24 66 c-57 159
-134 280 -234 370 -74 67 -252 202 -252 191 0 -5 42 -46 94 -91 124 -107 197
-187 245 -269 40 -67 94 -213 106 -287 7 -38 5 -37 -44 40 -66 106 -313 403
-343 414 -13 4 34 -65 117 -174 75 -98 111 -152 155 -230 30 -54 31 -58 9 -39
-13 11 -72 61 -130 112 -204 176 -329 350 -375 522 -21 79 -24 217 -6 287 l14
52 55 -69 c31 -38 119 -126 197 -196z m-20 -774 c126 -32 201 -73 286 -159 88
-89 149 -196 180 -317 31 -121 25 -126 -37 -25 -73 118 -193 246 -289 310
-157 105 -322 120 -439 40 -50 -35 -33 -37 27 -3 46 25 63 29 134 29 73 0 87
-3 160 -39 148 -73 314 -265 400 -463 18 -43 31 -79 29 -82 -7 -6 -83 56 -221
181 -237 213 -341 277 -462 285 -45 3 -81 0 -111 -10 l-43 -15 6 41 c9 59 49
136 90 176 38 37 121 70 177 71 20 0 70 -9 113 -20z m-257 -405 l3 -85 -29 15
c-29 14 -55 46 -80 93 -11 21 -9 24 31 42 71 32 73 31 75 -65z m478 -331 c80
-20 187 -74 257 -129 61 -49 140 -148 184 -230 l27 -50 -24 21 c-236 205 -340
272 -445 289 l-39 6 40 -18 c118 -52 234 -142 352 -273 l58 -64 -70 38 c-38
22 -142 80 -230 131 -214 123 -355 198 -361 192 -3 -2 44 -35 103 -73 59 -38
196 -127 304 -199 108 -71 214 -140 235 -153 l39 -23 -45 7 c-122 18 -304 96
-460 198 -129 84 -224 136 -335 181 -49 21 -92 39 -94 41 -8 8 122 82 172 98
120 38 208 40 332 10z m473 -647 c56 -29 121 -83 151 -126 l19 -26 -96 32
c-108 35 -276 64 -373 62 -73 -1 -63 -5 91 -33 47 -8 114 -25 150 -37 92 -30
233 -100 222 -111 -15 -15 -164 -21 -239 -9 -93 14 -187 46 -340 112 -89 39
-119 57 -112 65 13 16 126 62 209 85 48 14 90 18 165 16 86 -3 107 -7 153 -30z"/>
<path d="M6820 6418 c-7 -40 -35 -152 -61 -248 -78 -277 -84 -314 -84 -500 0
-150 3 -175 29 -275 16 -60 29 -114 28 -120 0 -5 -14 -49 -31 -97 -58 -160
-59 -360 -5 -627 l25 -124 -24 -61 c-65 -161 -81 -391 -39 -544 l20 -74 -24
-52 c-49 -107 -66 -200 -68 -357 l-1 -146 -36 -40 c-62 -68 -115 -154 -193
-313 -42 -84 -76 -157 -76 -161 0 -5 11 -9 25 -9 14 0 25 -3 25 -6 0 -3 -27
-35 -59 -71 -37 -39 -75 -96 -100 -148 -23 -46 -41 -85 -41 -88 0 -2 35 -15
78 -28 67 -21 97 -24 232 -24 187 0 232 10 442 102 81 35 178 71 215 79 38 8
82 19 98 23 l30 7 -70 51 c-84 62 -193 118 -286 148 l-68 21 87 43 c48 24 130
71 182 105 142 93 211 129 365 191 77 31 145 61 150 67 7 6 -14 33 -62 78
-128 123 -278 176 -473 167 l-105 -4 80 74 c94 88 191 162 258 198 l47 26 0
-93 c0 -99 3 -109 37 -127 55 -28 129 -5 186 59 51 55 68 98 74 185 14 177
-79 341 -223 395 -90 33 -245 23 -369 -24 -11 -5 7 16 40 45 225 197 367 400
411 585 20 85 23 241 5 314 -14 55 -56 144 -90 189 l-19 25 -22 -45 c-42 -82
-98 -154 -190 -244 -104 -101 -104 -99 -7 35 90 124 180 307 213 435 21 80 27
132 31 258 3 86 2 157 -2 157 -4 0 -44 -35 -90 -77 -45 -43 -120 -101 -167
-129 l-84 -52 24 82 c22 70 25 100 25 226 0 129 -3 155 -27 235 -37 123 -88
214 -169 301 -38 41 -72 74 -76 74 -4 0 -14 -33 -21 -72z m139 -216 c70 -138
91 -342 51 -496 -21 -84 -67 -183 -105 -231 l-24 -30 15 50 c44 146 66 366 48
491 -8 57 -8 56 -15 -61 -4 -78 -16 -159 -34 -230 -32 -128 -95 -292 -106
-273 -38 70 -44 319 -11 473 18 83 90 354 107 404 7 18 34 -16 74 -97z m357
-637 c-14 -142 -80 -311 -178 -461 -51 -79 -321 -445 -325 -441 -4 4 38 195
58 259 44 148 118 279 241 426 38 45 65 82 61 82 -22 0 -189 -189 -245 -276
-62 -97 -141 -293 -164 -409 l-8 -40 -7 45 c-13 79 -10 228 7 308 39 192 130
305 354 440 74 44 151 92 170 106 19 14 37 25 39 26 2 0 1 -29 -3 -65z m95
-583 c7 -34 9 -91 6 -142 -12 -173 -85 -324 -245 -501 -47 -52 -277 -259 -288
-259 -18 0 75 142 231 354 64 87 83 131 28 65 -15 -19 -57 -65 -92 -104 -101
-111 -168 -197 -222 -287 -47 -77 -50 -80 -43 -43 12 72 55 199 90 265 49 94
117 173 243 284 61 53 111 101 111 106 0 10 -132 -90 -237 -178 -104 -89 -189
-221 -242 -377 -34 -100 -39 -93 -15 23 22 107 73 228 137 325 54 81 107 135
321 331 59 54 126 123 148 152 22 30 44 52 48 49 5 -3 14 -31 21 -63z m-25
-970 c78 -40 135 -121 153 -217 l8 -43 -44 15 c-67 23 -164 13 -243 -25 -86
-41 -145 -86 -328 -249 -84 -75 -171 -150 -193 -166 l-40 -29 21 51 c77 196
200 361 343 462 133 93 260 112 370 55 27 -15 51 -25 53 -23 8 8 -57 47 -105
63 -213 69 -500 -116 -684 -441 l-28 -50 7 50 c9 71 56 205 95 272 19 32 63
87 99 123 145 146 387 218 516 152z m102 -332 c23 -10 42 -23 42 -28 0 -15
-57 -89 -81 -106 -13 -9 -26 -12 -31 -8 -11 11 3 162 16 162 6 0 30 -9 54 -20z
m-248 -397 c61 -17 130 -50 177 -85 l31 -24 -61 -23 c-102 -39 -249 -116 -355
-186 -126 -82 -280 -156 -396 -189 -126 -37 -143 -34 -66 12 36 21 160 101
275 178 116 77 241 159 278 183 38 23 66 45 64 48 -6 6 -184 -90 -367 -197
-63 -37 -155 -89 -205 -115 l-90 -48 95 97 c115 117 192 178 285 223 56 27 63
33 35 28 -92 -15 -274 -130 -407 -258 -24 -22 -45 -39 -48 -36 -12 13 78 142
150 214 170 171 394 237 605 178z m-457 -632 c90 -23 239 -91 217 -98 -8 -3
-80 -34 -160 -69 -151 -66 -229 -88 -341 -100 -77 -8 -199 3 -199 17 0 16 178
95 275 123 50 14 127 30 173 37 45 6 82 14 82 17 0 9 -212 -7 -290 -22 -41 -8
-114 -28 -162 -44 l-88 -29 31 38 c106 135 267 180 462 130z"/>
<path d="M1615 2006 c-16 -7 -41 -26 -55 -41 l-25 -27 3 -246 c3 -320 7 -365
38 -401 55 -66 223 -111 419 -112 115 -1 183 6 400 36 55 8 128 15 163 15 l62
0 0 -189 c0 -104 4 -200 9 -213 27 -71 139 -129 333 -172 614 -137 1405 -163
1988 -65 275 46 519 113 600 164 75 48 80 64 80 283 l0 192 53 0 c28 0 142
-11 252 -25 335 -43 529 -32 673 37 104 49 102 40 102 393 0 338 1 332 -74
366 -52 24 -172 25 -246 3 -29 -9 -111 -42 -182 -75 -70 -33 -141 -62 -157
-65 -16 -4 -109 4 -206 16 -217 27 -452 25 -523 -4 -75 -32 -82 -49 -82 -207
l0 -137 -47 -16 c-132 -42 -421 -104 -623 -133 -196 -28 -708 -25 -927 5 -181
24 -438 72 -555 104 l-78 20 0 148 c0 168 -6 183 -82 216 -71 29 -306 31 -523
4 -97 -12 -189 -20 -204 -17 -15 3 -87 33 -161 67 -73 34 -158 68 -189 76 -69
17 -196 18 -236 0z m304 -137 l104 -44 -59 -7 c-75 -9 -203 6 -257 30 -95 42
-77 75 38 69 55 -3 93 -13 174 -48z m4675 45 c33 -13 11 -42 -52 -70 -46 -21
-172 -35 -244 -27 l-61 6 49 25 c116 60 250 88 308 66z m-3724 -130 c18 -18
-118 -64 -189 -64 -59 0 -199 -18 -516 -65 -93 -14 -199 -25 -235 -26 l-65 -1
60 -10 c71 -11 203 -4 415 22 85 11 190 20 232 20 l78 0 -10 -26 c-6 -14 -10
-36 -10 -50 0 -23 -2 -24 -72 -24 -70 0 -423 -36 -443 -45 -5 -3 108 -3 253 0
l262 6 0 -96 0 -95 -72 0 c-39 0 -162 -12 -272 -26 -245 -32 -417 -30 -531 6
-116 36 -108 18 -115 259 l-5 209 25 -13 c51 -25 136 -38 259 -37 113 1 194 9
546 57 118 16 389 15 405 -1z m3070 -19 c344 -48 536 -50 637 -5 l46 20 -7
-207 c-4 -114 -10 -212 -13 -216 -10 -16 -94 -47 -176 -63 -101 -21 -306 -14
-507 16 -74 11 -172 20 -217 20 l-83 0 0 95 0 95 73 0 c39 -1 142 -5 227 -10
85 -5 173 -6 195 -3 51 9 -290 52 -411 53 l-82 0 -4 38 c-3 20 -7 44 -9 52 -5
19 68 17 301 -10 236 -27 349 -34 416 -24 l59 8 -95 7 c-52 4 -221 26 -376 48
-154 23 -307 41 -340 42 -39 0 -84 10 -134 29 -72 27 -74 31 -25 44 49 12 351
-4 525 -29z m-3030 -150 c0 -47 -4 -75 -11 -75 -25 0 -160 63 -156 74 2 8 145
74 165 76 1 0 2 -34 2 -75z m2579 15 c12 -6 21 -14 21 -18 0 -5 -33 -19 -72
-31 -40 -13 -79 -26 -85 -28 -10 -4 -13 13 -13 66 l0 71 64 -24 c36 -14 74
-30 85 -36z m39 -442 l-3 -322 -34 -23 c-118 -80 -608 -176 -1036 -204 -562
-37 -1505 72 -1686 194 l-34 23 -3 323 c-2 305 -1 323 15 318 10 -4 75 -26
145 -51 204 -72 534 -138 853 -171 177 -19 561 -21 720 -5 315 32 650 104 940
203 55 19 106 35 113 36 10 1 12 -66 10 -321z"/>
<path d="M3400 1176 c0 -3 -9 -87 -21 -187 -11 -100 -18 -183 -15 -186 2 -3
22 -7 44 -10 38 -5 39 -4 46 27 3 18 6 47 6 66 0 18 4 35 10 39 5 3 44 1 87
-4 86 -11 93 -8 93 46 l0 31 -85 7 -85 7 0 35 0 36 78 -8 c138 -13 127 -15
130 31 l3 41 -113 12 c-62 7 -128 15 -145 18 -18 3 -33 3 -33 -1z"/>
<path d="M4617 1150 c-38 -5 -70 -10 -72 -12 -5 -5 33 -369 39 -375 2 -3 24
-2 47 2 l41 7 -6 53 -6 53 53 7 c68 9 103 28 127 68 35 57 18 148 -33 182 -31
20 -103 26 -190 15z m138 -104 c20 -31 6 -63 -30 -71 -14 -3 -36 -7 -50 -10
-23 -5 -25 -2 -25 27 0 18 -3 43 -6 56 -6 21 -3 22 45 22 43 0 53 -4 66 -24z"/>
<path d="M3940 988 c0 -126 3 -147 20 -176 41 -67 149 -91 230 -49 69 35 80
66 80 229 l0 138 -45 0 -45 0 0 -124 c0 -110 -2 -126 -21 -150 -28 -36 -80
-36 -108 0 -19 24 -21 40 -21 150 l0 124 -45 0 -45 0 0 -142z"/>
<path d="M3008 1095 c-17 -38 3 -75 41 -75 50 0 74 38 51 81 -17 30 -77 26
-92 -6z"/>
<path d="M5162 1108 c-7 -7 -12 -24 -12 -38 0 -33 17 -50 50 -50 33 0 50 17
50 50 0 14 -5 31 -12 38 -15 15 -61 15 -76 0z"/>
</g>
</svg>
